<svg xmlns="http://www.w3.org/2000/svg" class="generator-canvas" width="100%" height="100%"><desc>Created with Snap</desc><defs /><g><text style="font-family: Lato; font-size: 32px; text-anchor: middle;" fill="#28a150" x="585" y="330">FCEPH</text><g transform="matrix(1.5 0 0 1.5 537 192)"><rect fill="#ffffff" x="0" y="0" width="64" height="64" /><g transform="matrix(1 0 0 1 14.9768 15.4562)"><path fill="#28a150" d="M 31.45 17.11 A 4.14 4.14 0 0 0 30.51 16 a 4.14 4.14 0 0 0 -1.95 -7.25 a 4.14 4.14 0 0 0 -5.31 -5.31 A 4.14 4.14 0 0 0 16 1.49 A 4.14 4.14 0 0 0 8.74 3.43 A 4.14 4.14 0 0 0 3.43 8.74 A 4.14 4.14 0 0 0 0.56 14.89 A 4.08 4.08 0 0 0 1.49 16 a 4.14 4.14 0 0 0 1.95 7.25 a 4.14 4.14 0 0 0 3.88 5.57 a 4 4 0 0 0 1.42 -0.25 a 4.21 4.21 0 0 0 0.5 1.36 a 4.1 4.1 0 0 0 2.51 1.93 a 4.19 4.19 0 0 0 1.08 0.14 a 4.1 4.1 0 0 0 2.06 -0.56 A 4.15 4.15 0 0 0 16 30.51 a 4.14 4.14 0 0 0 7.26 -1.95 a 4.13 4.13 0 0 0 5.57 -3.88 a 4 4 0 0 0 -0.25 -1.42 a 4.21 4.21 0 0 0 1.36 -0.5 a 4.14 4.14 0 0 0 1.51 -5.65 h 0 Z m -1.22 -4.92 a 2.44 2.44 0 0 1 -1.63 3 h -5 A 7.46 7.46 0 0 0 23 12.95 l 4.34 -2.51 a 2.44 2.44 0 0 1 2.9 1.75 h 0 Z M 16 21.94 A 5.93 5.93 0 1 1 21.93 16 A 5.94 5.94 0 0 1 16 21.94 Z M 26.41 5.59 A 2.45 2.45 0 0 1 26.48 9 l -4.34 2.51 a 7.67 7.67 0 0 0 -1.61 -1.62 L 23 5.52 a 2.45 2.45 0 0 1 3.38 0.07 h 0 Z M 18 2 a 2.44 2.44 0 0 1 3.61 2.65 L 19.06 9 a 7.59 7.59 0 0 0 -2.21 -0.59 v -5 A 2.44 2.44 0 0 1 18 2 Z m -5.77 -0.24 a 2.44 2.44 0 0 1 3 1.63 v 5 A 7.45 7.45 0 0 0 12.94 9 l -2.5 -4.34 a 2.44 2.44 0 0 1 1.75 -2.9 h 0 Z M 5.59 5.59 A 2.45 2.45 0 0 1 9 5.52 l 2.51 4.35 a 7.67 7.67 0 0 0 -1.62 1.61 L 5.52 9 a 2.45 2.45 0 0 1 0.07 -3.38 h 0 Z m -3.81 6.6 a 2.44 2.44 0 0 1 2.89 -1.75 L 9 12.95 a 7.6 7.6 0 0 0 -0.59 2.21 h -5 A 2.44 2.44 0 0 1 1.78 12.19 Z m 0 7.62 a 2.44 2.44 0 0 1 1.63 -3 h 5 A 7.46 7.46 0 0 0 9 19.06 L 4.67 21.56 a 2.44 2.44 0 0 1 -2.9 -1.75 h 0 Z m 3.81 6.6 A 2.45 2.45 0 0 1 5.52 23 l 4.34 -2.51 a 7.64 7.64 0 0 0 1.61 1.62 L 9 26.49 a 2.44 2.44 0 0 1 -3.38 -0.07 h 0 Z M 14 30 a 2.44 2.44 0 0 1 -3.61 -2.65 L 12.94 23 a 7.59 7.59 0 0 0 2.21 0.59 v 5 A 2.44 2.44 0 0 1 14 30 h 0 Z m 5.77 0.24 a 2.44 2.44 0 0 1 -3 -1.63 v -5 A 7.45 7.45 0 0 0 19.06 23 l 2.51 4.34 a 2.44 2.44 0 0 1 -1.75 2.9 h 0 Z m 6.6 -3.81 a 2.45 2.45 0 0 1 -3.38 0.07 l -2.51 -4.35 a 7.64 7.64 0 0 0 1.62 -1.61 L 26.48 23 a 2.45 2.45 0 0 1 -0.07 3.38 h 0 Z m 3.81 -6.6 a 2.44 2.44 0 0 1 -2.89 1.75 L 23 19.06 a 7.6 7.6 0 0 0 0.59 -2.21 h 5 a 2.44 2.44 0 0 1 1.63 3 h 0 Z M 16 20.24 A 4.24 4.24 0 1 1 20.24 16 A 4.24 4.24 0 0 1 16 20.24 Z m 0 -6.78 A 2.54 2.54 0 1 0 18.54 16 A 2.55 2.55 0 0 0 16 13.46 Z" /></g><g fill="#7eff3e" height="64" width="64" y="0" x="0">
	<path fill="#28a150" d="M 31.8 63.6 L 3.6 47.7 V 15.8 L 31.8 -0.2 l 28.1 15.9 v 31.9 L 31.8 63.6 Z M 5.6 46.5 l 26.1 14.8 l 26.1 -14.8 V 16.9 L 31.8 2.1 L 5.6 16.9 V 46.5 Z" />
</g></g></g></svg>